HIERARCHY
ROOT Hips
{
	OFFSET 0.000000 0.000000 0.000000
	CHANNELS 6 Xposition Yposition Zposition Zrotation Yrotation Xrotation 
	JOINT LHipJoint
	{
		OFFSET 0.000000 0.000000 0.000000
		CHANNELS 3 Zrotation Yrotation Xrotation
		JOINT LeftUpLeg
		{
			OFFSET 1.363060 -1.794630 0.839290
			CHANNELS 3 Zrotation Yrotation Xrotation
			JOINT LeftLeg
			{
				OFFSET 2.448110 -6.726130 0.000000
				CHANNELS 3 Zrotation Yrotation Xrotation
				JOINT LeftFoot
				{
					OFFSET 2.562200 -7.039590 0.000000
					CHANNELS 3 Zrotation Yrotation Xrotation
					JOINT LeftToeBase
					{
						OFFSET 0.157640 -0.433110 2.322550
						CHANNELS 3 Zrotation Yrotation Xrotation
						End Site
						{
							OFFSET 0.000000 0.000000 0.000000
						}
					}
				}
			}
		}
	}
	JOINT RHipJoint
	{
		OFFSET 0.000000 0.000000 0.000000
		CHANNELS 3 Zrotation Yrotation Xrotation
		JOINT RightUpLeg
		{
			OFFSET -1.305520 -1.794630 0.839290
			CHANNELS 3 Zrotation Yrotation Xrotation
			JOINT RightLeg
			{
				OFFSET -2.542530 -6.985550 0.000000
				CHANNELS 3 Zrotation Yrotation Xrotation
				JOINT RightFoot
				{
					OFFSET -2.568260 -7.056230 0.000000
					CHANNELS 3 Zrotation Yrotation Xrotation
					JOINT RightToeBase
					{
						OFFSET -0.164730 -0.452590 2.363150
						CHANNELS 3 Zrotation Yrotation Xrotation
						End Site
						{
							OFFSET 0.000000 0.000000 0.000000
						}
					}
				}
			}
		}
	}
	JOINT LowerBack
	{
		OFFSET 0.000000 0.000000 0.000000
		CHANNELS 3 Zrotation Yrotation Xrotation
		JOINT Spine
		{
			OFFSET 0.028270 2.035590 -0.193380
			CHANNELS 3 Zrotation Yrotation Xrotation
			JOINT Spine1
			{
				OFFSET 0.056720 2.048850 -0.042750
				CHANNELS 3 Zrotation Yrotation Xrotation
				JOINT Neck
				{
					OFFSET 0.000000 0.000000 0.000000
					CHANNELS 3 Zrotation Yrotation Xrotation
					JOINT Neck1
					{
						OFFSET -0.054170 1.746240 0.172020
						CHANNELS 3 Zrotation Yrotation Xrotation
						JOINT Head
						{
							OFFSET 0.104070 1.761360 -0.123970
							CHANNELS 3 Zrotation Yrotation Xrotation
							End Site
							{
								OFFSET 0.000000 0.000000 0.000000
							}
						}
					}
				}
				JOINT LeftShoulder
				{
					OFFSET 0.000000 0.000000 0.000000
					CHANNELS 3 Zrotation Yrotation Xrotation
					JOINT LeftArm
					{
						OFFSET 3.362410 1.200890 -0.311210
						CHANNELS 3 Zrotation Yrotation Xrotation
						JOINT LeftForeArm
						{
							OFFSET 4.983000 -0.000000 -0.000000
							CHANNELS 3 Zrotation Yrotation Xrotation
							JOINT LeftHand
							{
								OFFSET 3.483560 -0.000000 -0.000000
								CHANNELS 3 Zrotation Yrotation Xrotation
								JOINT LeftFingerBase
								{
									OFFSET 0.000000 0.000000 0.000000
									CHANNELS 3 Zrotation Yrotation Xrotation
									JOINT LeftHandIndex1
									{
										OFFSET 0.715260 -0.000000 -0.000000
										CHANNELS 3 Zrotation Yrotation Xrotation
										End Site
										{
											OFFSET 0.000000 0.000000 0.000000
										}
									}
								}
								JOINT LThumb
								{
									OFFSET 0.000000 0.000000 0.000000
									CHANNELS 3 Zrotation Yrotation Xrotation
									End Site
									{
										OFFSET 0.000000 0.000000 0.000000
									}
								}
							}
						}
					}
				}
				JOINT RightShoulder
				{
					OFFSET 0.000000 0.000000 0.000000
					CHANNELS 3 Zrotation Yrotation Xrotation
					JOINT RightArm
					{
						OFFSET -3.136600 1.374050 -0.404650
						CHANNELS 3 Zrotation Yrotation Xrotation
						JOINT RightForeArm
						{
							OFFSET -5.241900 -0.000000 -0.000000
							CHANNELS 3 Zrotation Yrotation Xrotation
							JOINT RightHand
							{
								OFFSET -3.444170 -0.000000 -0.000000
								CHANNELS 3 Zrotation Yrotation Xrotation
								JOINT RightFingerBase
								{
									OFFSET 0.000000 0.000000 0.000000
									CHANNELS 3 Zrotation Yrotation Xrotation
									JOINT RightHandIndex1
									{
										OFFSET -0.622530 -0.000000 -0.000000
										CHANNELS 3 Zrotation Yrotation Xrotation
										End Site
										{
											OFFSET 0.000000 0.000000 0.000000
										}
									}
								}
								JOINT RThumb
								{
									OFFSET 0.000000 0.000000 0.000000
									CHANNELS 3 Zrotation Yrotation Xrotation
									End Site
									{
										OFFSET 0.000000 0.000000 0.000000
									}
								}
							}
						}
					}
				}
			}
		}
	}
}
MOTION
Frames: 4
Frame Time: 0.008333
3.424944 17.238769 0.915469 173.198106 -89.300165 -162.653071 -11.527855 1.748002 0.802899 -3.908790 15.740707 -14.421991 -2.452517 -0.990639 -1.946889 0.379795 3.228935 3.313636 0.767000 0.000000 -37.518500 9.298706 -1.537567 2.172351 3.078550 -2.521333 -8.526808 2.098181 1.569505 -2.149606 -1.216771 -7.248264 -0.632189 -1.577400 -0.000000 -40.850600 1.135012 -1.665373 -3.948874 -0.239864 -1.847677 -3.162851 -6.916218 -1.534737 1.146126 8.651364 -10.855697 -4.806086 -4.062955 -0.339638 0.771586 0.000000 0.000000 0.000000 13.422375 10.950193 -1.774689 -87.120425 -7.209793 22.625590 -177.973088 -50.690402 -179.942965 -5.607830 -7.688268 0.466467 0.413473 1.116716 -0.000000 0.000000 0.000000 0.000000 0.000000 0.000000 0.000000 1.205229 -6.992287 -3.813848 88.245488 18.273862 33.677468 -179.742543 51.543760 179.889078 -8.597166 12.569003 -1.059710 0.220090 -1.152791 -0.000000 0.000000 0.000000 0.000000 0.000000 0.000000 0.000000 
3.430210 17.234501 0.907208 -1.724348 -88.341929 12.244955 -11.384790 1.823954 1.277237 -3.613662 13.700968 -14.754212 -2.373092 -0.959426 -1.794230 0.339901 2.792762 3.381215 0.700999 -0.000000 -37.743400 9.401355 -1.469072 1.791739 3.511220 -4.345208 -8.179244 2.107396 1.626802 -2.221856 -1.333905 -7.925068 -0.852706 -1.650200 0.000000 -40.553000 1.314067 -1.878212 -4.041224 -0.207246 -2.077840 -3.202078 -6.964421 -1.767422 0.988673 8.545862 -10.670192 -4.388981 -4.083619 -0.344436 0.888317 0.000000 0.000000 0.000000 13.267610 10.266001 -1.781545 -86.182550 -8.154728 22.493442 -177.852590 -51.340948 -179.941986 -5.392947 -7.539785 0.440379 0.385887 1.114096 0.000000 0.000000 0.000000 0.000000 0.000000 0.000000 0.000000 1.198469 -7.094460 -3.825224 87.775250 18.724304 33.157249 -179.707730 51.584820 179.886738 -8.775773 12.323770 -1.061214 0.223139 -1.139682 -0.000000 0.000000 0.000000 0.000000 0.000000 0.000000 0.000000 
3.434838 17.230633 0.897170 -0.168462 -86.709691 10.662827 -11.302632 1.849642 1.508358 -3.560015 12.664898 -14.931754 -2.368966 -0.958883 -1.838304 0.267660 2.192689 3.607820 0.612000 0.000000 -38.045201 9.465323 -1.458353 1.637061 3.634287 -5.117658 -7.915311 2.052019 1.648327 -2.240922 -1.500256 -8.781099 -1.130578 -1.742500 0.000000 -40.224400 1.275160 -1.922508 -4.119469 -0.228069 -2.121072 -3.233729 -7.027178 -1.808866 0.858141 8.456944 -10.500192 -4.019992 -4.096156 -0.348329 0.989174 0.000000 0.000000 0.000000 13.106406 9.800198 -1.805723 -85.273535 -9.227058 22.456393 -177.722486 -51.880196 -179.941106 -5.212317 -7.443414 0.420280 0.360722 1.114145 0.000000 0.000000 0.000000 0.000000 0.000000 0.000000 0.000000 1.194235 -7.108504 -3.829552 87.324040 19.263369 32.547001 -179.679924 51.647867 179.883854 -9.026997 12.072719 -1.070405 0.230122 -1.128100 -0.000000 0.000000 0.000000 0.000000 0.000000 0.000000 0.000000 
3.439084 17.227437 0.887170 0.589723 -85.059035 9.891307 -11.233721 1.868498 1.737195 -3.513290 11.623991 -15.119701 -2.365710 -0.959468 -1.888955 0.195344 1.593483 3.859833 0.520600 0.000000 -38.365600 9.516798 -1.455434 1.483420 3.750859 -5.907340 -7.627309 1.999794 1.675150 -2.357200 -1.662549 -9.627902 -1.343971 -1.840101 -0.000000 -39.875000 1.193537 -1.966904 -4.196297 -0.251505 -2.159732 -3.257830 -7.073320 -1.845570 0.762172 8.392251 -10.359681 -3.688445 -4.101216 -0.351308 1.079646 0.000000 0.000000 0.000000 12.934424 9.420224 -1.827369 -84.493675 -10.454712 22.568433 -177.570273 -52.338862 -179.939717 -5.069126 -7.404651 0.406481 0.337338 1.119455 0.000000 0.000000 0.000000 0.000000 0.000000 0.000000 0.000000 1.185680 -7.160591 -3.844080 86.795534 19.872737 31.809186 -179.643628 51.686850 179.879785 -9.387406 11.838557 -1.092766 0.241274 -1.117570 -0.000000 0.000000 0.000000 0.000000 0.000000 0.000000 0.000000 
